<svg xmlns="http://www.w3.org/2000/svg" width="200" height="200" fill="none"><g clip-path="url(#a)"><mask id="b" width="200" height="200" x="0" y="0" maskUnits="userSpaceOnUse" style="mask-type:luminance"><path fill="#fff" d="M200 0H0v200h200V0z"/></mask><g mask="url(#b)"><path fill="url(#c)" fill-rule="evenodd" d="M100 0C72.386 0 50 22.386 50 50 22.386 50 0 72.386 0 100s22.386 50 50 50c0 27.614 22.386 50 50 50s50-22.386 50-50c27.614 0 50-22.386 50-50s-22.386-50-50-50c0-27.614-22.386-50-50-50zm40.306 59.694c0-22.26-18.046-40.306-40.306-40.306-22.26 0-40.306 18.045-40.306 40.306-22.26 0-40.306 18.046-40.306 40.306 0 22.26 18.045 40.306 40.306 40.306 0 22.261 18.046 40.306 40.306 40.306 22.26 0 40.306-18.045 40.306-40.306 22.261 0 40.306-18.046 40.306-40.306 0-22.26-18.045-40.306-40.306-40.306zm-70.918 9.694c0-16.907 13.705-30.613 30.612-30.613 16.907 0 30.612 13.706 30.612 30.613 16.907 0 30.612 13.705 30.612 30.612 0 16.907-13.705 30.612-30.612 30.612 0 16.907-13.705 30.612-30.612 30.612-16.907 0-30.612-13.705-30.612-30.612-16.907 0-30.613-13.705-30.613-30.612 0-16.907 13.706-30.612 30.613-30.612z" clip-rule="evenodd"/></g></g><defs><linearGradient id="c" x1="14" x2="179" y1="26" y2="179.5" gradientUnits="userSpaceOnUse"><stop stop-color="#DF0FFF"/><stop offset="1" stop-color="#FF490F"/></linearGradient><clipPath id="a"><path fill="#fff" d="M0 0h200v200H0z"/></clipPath></defs></svg>